{
    "asset" : {
        "generator" : "Khronos glTF Blender I/O v0.9.36",
        "version" : "2.0"
    },
    "scene" : 0,
    "scenes" : [
        {
            "name" : "Scene",
            "nodes" : [
                0,
                1,
                2,
                3,
                4
            ]
        }
    ],
    "nodes" : [
        {
            "name" : "Lamp",
            "rotation" : [
                0.16907575726509094,
                0.7558803558349609,
                -0.27217137813568115,
                0.570947527885437
            ],
            "translation" : [
                4.076245307922363,
                5.903861999511719,
                -1.0054539442062378
            ]
        },
        {
            "name" : "Camera",
            "rotation" : [
                0.483536034822464,
                0.33687159419059753,
                -0.20870360732078552,
                0.7804827094078064
            ],
            "translation" : [
                7.481131553649902,
                5.34366512298584,
                6.5076398849487305
            ]
        },
        {
            "mesh" : 0,
            "name" : "cup",
            "scale" : [
                0.12095504999160767,
                0.1470859795808792,
                0.12095504999160767
            ],
            "translation" : [
                -0.3693712055683136,
                1.475210189819336,
                -0.9425405859947205
            ]
        },
        {
            "mesh" : 1,
            "name" : "straw",
            "rotation" : [
                0.15398138761520386,
                0,
                0,
                0.9880737662315369
            ],
            "scale" : [
                0.006835580337792635,
                0.011776953004300594,
                0.007490659598261118
            ],
            "translation" : [
                -0.19323314726352692,
                3.075096607208252,
                -0.13530796766281128
            ]
        },
        {
            "mesh" : 2,
            "name" : "cok",
            "scale" : [
                0.12095504999160767,
                0.1470859795808792,
                0.12095504999160767
            ],
            "translation" : [
                -0.3693712055683136,
                1.4180715084075928,
                -0.9425405859947205
            ]
        }
    ],
    "materials" : [
        {
            "doubleSided" : true,
            "name" : "Material.008",
            "pbrMetallicRoughness" : {}
        },
        {
            "doubleSided" : true,
            "name" : "Material.010",
            "pbrMetallicRoughness" : {}
        },
        {
            "doubleSided" : true,
            "name" : "Material.007",
            "pbrMetallicRoughness" : {}
        }
    ],
    "meshes" : [
        {
            "name" : "Cylinder.001",
            "primitives" : [
                {
                    "attributes" : {
                        "POSITION" : 0,
                        "NORMAL" : 1
                    },
                    "indices" : 2,
                    "material" : 0
                },
                {
                    "attributes" : {
                        "POSITION" : 3,
                        "NORMAL" : 4
                    },
                    "indices" : 5,
                    "material" : 1
                }
            ]
        },
        {
            "name" : "Cylinder.003",
            "primitives" : [
                {
                    "attributes" : {
                        "POSITION" : 6,
                        "NORMAL" : 7
                    },
                    "indices" : 8,
                    "material" : 2
                }
            ]
        },
        {
            "name" : "Cylinder.002",
            "primitives" : [
                {
                    "attributes" : {
                        "POSITION" : 9,
                        "NORMAL" : 10,
                        "TEXCOORD_0" : 11
                    },
                    "indices" : 12,
                    "material" : 0
                }
            ]
        }
    ],
    "accessors" : [
        {
            "bufferView" : 0,
            "componentType" : 5126,
            "count" : 540,
            "max" : [
                10.299349784851074,
                10,
                10.299349784851074
            ],
            "min" : [
                -10.299349784851074,
                -10,
                -10.299349784851074
            ],
            "type" : "VEC3"
        },
        {
            "bufferView" : 1,
            "componentType" : 5126,
            "count" : 540,
            "type" : "VEC3"
        },
        {
            "bufferView" : 2,
            "componentType" : 5123,
            "count" : 852,
            "type" : "SCALAR"
        },
        {
            "bufferView" : 3,
            "componentType" : 5126,
            "count" : 384,
            "max" : [
                9.894291877746582,
                5.983564853668213,
                9.894291877746582
            ],
            "min" : [
                -9.894291877746582,
                -0.6306576132774353,
                -9.89428997039795
            ],
            "type" : "VEC3"
        },
        {
            "bufferView" : 4,
            "componentType" : 5126,
            "count" : 384,
            "type" : "VEC3"
        },
        {
            "bufferView" : 5,
            "componentType" : 5123,
            "count" : 576,
            "type" : "SCALAR"
        },
        {
            "bufferView" : 6,
            "componentType" : 5126,
            "count" : 638,
            "max" : [
                10,
                254.0750274658203,
                10
            ],
            "min" : [
                -10,
                -10,
                -10
            ],
            "type" : "VEC3"
        },
        {
            "bufferView" : 7,
            "componentType" : 5126,
            "count" : 638,
            "type" : "VEC3"
        },
        {
            "bufferView" : 8,
            "componentType" : 5123,
            "count" : 1140,
            "type" : "SCALAR"
        },
        {
            "bufferView" : 9,
            "componentType" : 5126,
            "count" : 1700,
            "max" : [
                11.973758697509766,
                15.996379852294922,
                11.973758697509766
            ],
            "min" : [
                -11.973758697509766,
                9.691493034362793,
                -11.973758697509766
            ],
            "type" : "VEC3"
        },
        {
            "bufferView" : 10,
            "componentType" : 5126,
            "count" : 1700,
            "type" : "VEC3"
        },
        {
            "bufferView" : 11,
            "componentType" : 5126,
            "count" : 1700,
            "type" : "VEC2"
        },
        {
            "bufferView" : 12,
            "componentType" : 5123,
            "count" : 2610,
            "type" : "SCALAR"
        }
    ],
    "bufferViews" : [
        {
            "buffer" : 0,
            "byteLength" : 6480,
            "byteOffset" : 0
        },
        {
            "buffer" : 0,
            "byteLength" : 6480,
            "byteOffset" : 6480
        },
        {
            "buffer" : 0,
            "byteLength" : 1704,
            "byteOffset" : 12960
        },
        {
            "buffer" : 0,
            "byteLength" : 4608,
            "byteOffset" : 14664
        },
        {
            "buffer" : 0,
            "byteLength" : 4608,
            "byteOffset" : 19272
        },
        {
            "buffer" : 0,
            "byteLength" : 1152,
            "byteOffset" : 23880
        },
        {
            "buffer" : 0,
            "byteLength" : 7656,
            "byteOffset" : 25032
        },
        {
            "buffer" : 0,
            "byteLength" : 7656,
            "byteOffset" : 32688
        },
        {
            "buffer" : 0,
            "byteLength" : 2280,
            "byteOffset" : 40344
        },
        {
            "buffer" : 0,
            "byteLength" : 20400,
            "byteOffset" : 42624
        },
        {
            "buffer" : 0,
            "byteLength" : 20400,
            "byteOffset" : 63024
        },
        {
            "buffer" : 0,
            "byteLength" : 13600,
            "byteOffset" : 83424
        },
        {
            "buffer" : 0,
            "byteLength" : 5220,
            "byteOffset" : 97024
        }
    ],
    "buffers" : [
        {
            "byteLength" : 102244,
            "uri" : "data:application/octet-stream;base64,"
        }
    ]
}
